<svg width="25" height="25" viewBox="0 0 25 25" fill="none" xmlns="http://www.w3.org/2000/svg">
<path d="M18.5 13.5548V10.3748C18.4986 8.95788 17.9958 7.58722 17.0806 6.50553C16.1655 5.42384 14.8971 4.7009 13.5 4.46476V3.37476C13.5 3.10954 13.3946 2.85519 13.2071 2.66765C13.0196 2.48011 12.7652 2.37476 12.5 2.37476C12.2348 2.37476 11.9804 2.48011 11.7929 2.66765C11.6054 2.85519 11.5 3.10954 11.5 3.37476V4.46476C10.1029 4.7009 8.83452 5.42384 7.91939 6.50553C7.00425 7.58722 6.50144 8.95788 6.5 10.3748V13.5548C5.91645 13.7611 5.411 14.1428 5.05294 14.6477C4.69488 15.1526 4.50174 15.7558 4.5 16.3748V18.3748C4.5 18.64 4.60536 18.8943 4.79289 19.0819C4.98043 19.2694 5.23478 19.3748 5.5 19.3748H8.64C8.87028 20.2221 9.373 20.9702 10.0706 21.5035C10.7682 22.0368 11.6219 22.3258 12.5 22.3258C13.3781 22.3258 14.2318 22.0368 14.9294 21.5035C15.627 20.9702 16.1297 20.2221 16.36 19.3748H19.5C19.7652 19.3748 20.0196 19.2694 20.2071 19.0819C20.3946 18.8943 20.5 18.64 20.5 18.3748V16.3748C20.4983 15.7558 20.3051 15.1526 19.9471 14.6477C19.589 14.1428 19.0835 13.7611 18.5 13.5548ZM8.5 10.3748C8.5 9.31389 8.92143 8.29647 9.67157 7.54633C10.4217 6.79618 11.4391 6.37476 12.5 6.37476C13.5609 6.37476 14.5783 6.79618 15.3284 7.54633C16.0786 8.29647 16.5 9.31389 16.5 10.3748V13.3748H8.5V10.3748ZM12.5 20.3748C12.151 20.3726 11.8086 20.2792 11.5068 20.1038C11.2051 19.9284 10.9545 19.677 10.78 19.3748H14.22C14.0455 19.677 13.7949 19.9284 13.4932 20.1038C13.1914 20.2792 12.849 20.3726 12.5 20.3748ZM18.5 17.3748H6.5V16.3748C6.5 16.1095 6.60536 15.8552 6.79289 15.6676C6.98043 15.4801 7.23478 15.3748 7.5 15.3748H17.5C17.7652 15.3748 18.0196 15.4801 18.2071 15.6676C18.3946 15.8552 18.5 16.1095 18.5 16.3748V17.3748Z" fill="#4697FA"/>
</svg>
