<svg width="20" height="20" viewBox="0 0 20 20" fill="none" xmlns="http://www.w3.org/2000/svg">
<path d="M15.8333 4.16675H4.16663C3.50358 4.16675 2.8677 4.43014 2.39886 4.89898C1.93002 5.36782 1.66663 6.00371 1.66663 6.66675V14.1667C1.66663 14.8298 1.93002 15.4657 2.39886 15.9345C2.8677 16.4034 3.50358 16.6667 4.16663 16.6667H15.8333C16.4963 16.6667 17.1322 16.4034 17.6011 15.9345C18.0699 15.4657 18.3333 14.8298 18.3333 14.1667V6.66675C18.3333 6.00371 18.0699 5.36782 17.6011 4.89898C17.1322 4.43014 16.4963 4.16675 15.8333 4.16675ZM16.6666 14.1667C16.6666 14.3878 16.5788 14.5997 16.4225 14.756C16.2663 14.9123 16.0543 15.0001 15.8333 15.0001H4.16663C3.94561 15.0001 3.73365 14.9123 3.57737 14.756C3.42109 14.5997 3.33329 14.3878 3.33329 14.1667V9.16675H16.6666V14.1667ZM16.6666 7.50008H3.33329V6.66675C3.33329 6.44573 3.42109 6.23377 3.57737 6.07749C3.73365 5.92121 3.94561 5.83341 4.16663 5.83341H15.8333C16.0543 5.83341 16.2663 5.92121 16.4225 6.07749C16.5788 6.23377 16.6666 6.44573 16.6666 6.66675V7.50008Z" fill="#4996F8"/>
</svg>
