<svg width="20" height="20" viewBox="0 0 20 20" fill="none" xmlns="http://www.w3.org/2000/svg">
<path d="M12.3084 4.89167C12.4997 5.00031 12.7263 5.02886 12.9386 4.9711C13.1509 4.91334 13.3318 4.77394 13.4417 4.58333C13.5327 4.4228 13.6743 4.29699 13.8445 4.22565C14.0147 4.15431 14.2037 4.14146 14.382 4.18912C14.5602 4.23678 14.7176 4.34226 14.8295 4.48901C14.9413 4.63576 15.0013 4.81549 15 5C15 5.22101 14.9122 5.43297 14.756 5.58925C14.5997 5.74554 14.3877 5.83333 14.1667 5.83333C13.9457 5.83333 13.7337 5.92113 13.5774 6.07741C13.4212 6.23369 13.3334 6.44565 13.3334 6.66667C13.3334 6.88768 13.4212 7.09964 13.5774 7.25592C13.7337 7.4122 13.9457 7.5 14.1667 7.5C14.6055 7.49972 15.0364 7.38396 15.4163 7.16436C15.7962 6.94476 16.1116 6.62905 16.3308 6.24896C16.55 5.86886 16.6653 5.43777 16.6651 4.999C16.6649 4.56022 16.5493 4.12922 16.3298 3.74931C16.1103 3.36939 15.7946 3.05393 15.4146 2.83464C15.0345 2.61534 14.6035 2.49993 14.1647 2.5C13.7259 2.50007 13.2949 2.61562 12.9149 2.83504C12.535 3.05445 12.2194 3.37001 12 3.75C11.9449 3.84511 11.9092 3.95018 11.8949 4.05917C11.8806 4.16815 11.8879 4.27889 11.9166 4.385C11.9453 4.49112 11.9946 4.59052 12.0619 4.67747C12.1291 4.76443 12.2129 4.83722 12.3084 4.89167ZM15.8917 10.8333C15.673 10.8049 15.4519 10.8644 15.2769 10.9988C15.102 11.1331 14.9874 11.3313 14.9584 11.55C14.7835 12.9626 14.0981 14.2626 13.0314 15.205C11.9646 16.1474 10.5901 16.6673 9.1667 16.6667H4.50837L5.05003 16.125C5.20524 15.9689 5.29236 15.7577 5.29236 15.5375C5.29236 15.3173 5.20524 15.1061 5.05003 14.95C4.23749 14.1343 3.68452 13.0963 3.46078 11.9669C3.23704 10.8375 3.35252 9.6671 3.7927 8.60319C4.23288 7.53928 4.97805 6.62943 5.93436 5.98824C6.89067 5.34705 8.01534 5.0032 9.1667 5C9.38771 5 9.59968 4.9122 9.75596 4.75592C9.91224 4.59964 10 4.38768 10 4.16667C10 3.94565 9.91224 3.73369 9.75596 3.57741C9.59968 3.42113 9.38771 3.33333 9.1667 3.33333C7.75773 3.33921 6.3789 3.74186 5.1882 4.49516C3.99749 5.24846 3.04306 6.32193 2.43426 7.5926C1.82545 8.86327 1.58689 10.2797 1.74591 11.6797C1.90492 13.0797 2.45509 14.4066 3.33337 15.5083L1.90837 16.9083C1.79274 17.0255 1.71441 17.1743 1.68326 17.336C1.65212 17.4976 1.66955 17.6649 1.73337 17.8167C1.79588 17.9688 1.90205 18.0991 2.03848 18.1911C2.17492 18.283 2.33551 18.3325 2.50003 18.3333H9.1667C10.9929 18.3336 12.7565 17.6675 14.1265 16.4601C15.4966 15.2526 16.3791 13.5868 16.6084 11.775C16.6236 11.666 16.6171 11.5552 16.5893 11.4487C16.5615 11.3423 16.5128 11.2424 16.4462 11.1549C16.3796 11.0673 16.2963 10.9938 16.2011 10.9387C16.1059 10.8835 16.0008 10.8477 15.8917 10.8333ZM14.4834 8.39167C14.3317 8.32454 14.1634 8.30423 14 8.33333L13.85 8.38333L13.7 8.45833L13.575 8.56667C13.5001 8.64346 13.4407 8.73401 13.4 8.83333C13.3508 8.93728 13.3279 9.05176 13.3334 9.16667C13.3309 9.27781 13.3508 9.38831 13.3917 9.49167C13.4348 9.59168 13.4971 9.68228 13.575 9.75833C13.6529 9.83557 13.7452 9.89667 13.8468 9.93814C13.9483 9.97961 14.057 10.0006 14.1667 10C14.3877 10 14.5997 9.9122 14.756 9.75592C14.9122 9.59964 15 9.38768 15 9.16667C15.0029 9.05735 14.98 8.9489 14.9334 8.85C14.8438 8.64975 14.6836 8.48954 14.4834 8.4V8.39167Z" fill="#4996F8"/>
</svg>
