<svg width="16" height="16" viewBox="0 0 16 16" fill="none" xmlns="http://www.w3.org/2000/svg">
<path d="M13.2431 5.7334C13.1934 5.61921 13.1128 5.52122 13.0103 5.45052C12.9078 5.37982 12.7875 5.33925 12.6631 5.3334H9.60978L10.4564 2.1734C10.4834 2.07452 10.4872 1.97075 10.4676 1.87015C10.4479 1.76956 10.4053 1.67486 10.3431 1.5934C10.2803 1.51183 10.1995 1.4459 10.107 1.4008C10.0144 1.35569 9.91272 1.33262 9.80978 1.3334H5.14312C4.99261 1.32824 4.84479 1.3742 4.72373 1.46378C4.60268 1.55336 4.51552 1.68129 4.47645 1.82673L2.68978 8.4934C2.6626 8.5941 2.65943 8.69978 2.68052 8.80193C2.70161 8.90409 2.74638 8.99987 2.81122 9.08157C2.87607 9.16327 2.95918 9.22862 3.05387 9.27236C3.14857 9.3161 3.2522 9.337 3.35645 9.3334H5.92312L4.71645 13.8267C4.67691 13.9716 4.68746 14.1256 4.74638 14.2638C4.80531 14.4019 4.90915 14.5161 5.04109 14.5879C5.17303 14.6596 5.32533 14.6847 5.47332 14.6591C5.62131 14.6335 5.75631 14.5587 5.85645 14.4467L13.1231 6.44673C13.2096 6.35199 13.267 6.23429 13.2883 6.10776C13.3096 5.98122 13.2939 5.85124 13.2431 5.7334ZM6.71645 11.5201L7.43645 8.8534C7.46653 8.75307 7.47255 8.64707 7.45401 8.54399C7.43548 8.4409 7.39292 8.34363 7.32978 8.26007C7.26631 8.17759 7.18442 8.11111 7.09065 8.06596C6.99688 8.02081 6.89384 7.99825 6.78978 8.00007H4.22978L5.65645 2.66673H8.94312L8.09645 5.82673C8.06927 5.92744 8.06609 6.03311 8.08719 6.13527C8.10828 6.23742 8.15304 6.3332 8.21789 6.4149C8.28273 6.49661 8.36584 6.56195 8.46054 6.60569C8.55523 6.64943 8.65887 6.67034 8.76312 6.66673H11.1431L6.71645 11.5201Z" fill="#4996F8"/>
</svg>
