<svg width="20" height="20" viewBox="0 0 20 20" fill="none" xmlns="http://www.w3.org/2000/svg">
<path d="M9.99935 17.4994C9.99935 17.9596 9.62533 18.337 9.1674 18.2911C8.35845 18.2099 7.5642 18.0106 6.81032 17.6983C5.79927 17.2796 4.88061 16.6657 4.10679 15.8919C2.54399 14.3291 1.66602 12.2095 1.66602 9.99935C1.66602 8.35118 2.15476 6.74001 3.07044 5.3696C3.98611 3.99919 5.2876 2.93109 6.81032 2.30036C8.33304 1.66963 10.0086 1.5046 11.6251 1.82614C13.2416 2.14769 14.7265 2.94136 15.8919 4.1068C17.0573 5.27223 17.851 6.75709 18.1726 8.3736C18.2249 8.63694 18.2644 8.90185 18.2911 9.1674C18.337 9.62534 17.9596 9.99935 17.4994 9.99935C17.0391 9.99935 16.6714 9.62483 16.614 9.16818C16.5401 8.58019 16.3878 8.00154 16.1585 7.44813C15.654 6.22996 14.7995 5.18876 13.7031 4.45622C12.6068 3.72368 11.3179 3.33269 9.99935 3.33269C8.23124 3.33269 6.53555 4.03506 5.2853 5.28531C4.03506 6.53555 3.33268 8.23124 3.33268 9.99935C3.33268 11.3179 3.72368 12.6068 4.45622 13.7032C5.18876 14.7995 6.22995 15.654 7.44813 16.1585C8.00154 16.3878 8.58019 16.5401 9.16818 16.614C9.62483 16.6714 9.99935 17.0391 9.99935 17.4994Z" fill="white"/>
</svg>
