<svg width="16" height="16" viewBox="0 0 16 16" fill="none" xmlns="http://www.w3.org/2000/svg">
<path fill-rule="evenodd" clip-rule="evenodd" d="M2.82494 7.09444C6.04616 5.64289 8.19414 4.68593 9.26889 4.22358C12.3375 2.90347 12.9751 2.67416 13.3907 2.66658C13.4822 2.66492 13.6865 2.68835 13.8189 2.79946C13.9307 2.89327 13.9615 3.02001 13.9762 3.10896C13.9909 3.19791 14.0092 3.40053 13.9947 3.55886C13.8284 5.36599 13.1088 9.75141 12.7428 11.7754C12.5879 12.6319 12.2829 12.919 11.9876 12.9471C11.346 13.0082 10.8587 12.5085 10.2372 12.0872C9.26468 11.4278 8.71527 11.0173 7.77127 10.3739C6.68032 9.63036 7.38754 9.22168 8.00927 8.55379C8.17198 8.37899 10.9992 5.71922 11.054 5.47794C11.0608 5.44776 11.0671 5.33528 11.0025 5.27589C10.9379 5.21649 10.8426 5.2368 10.7738 5.25295C10.6762 5.27585 9.1226 6.33794 6.11292 8.43922C5.67193 8.75242 5.2725 8.90502 4.91462 8.89702C4.52009 8.8882 3.76117 8.6663 3.19699 8.47662C2.505 8.24396 1.95502 8.12096 2.00291 7.72585C2.02785 7.52005 2.30186 7.30958 2.82494 7.09444Z" fill="#4996F8"/>
</svg>
