<svg width="25" height="24" viewBox="0 0 25 24" fill="none" xmlns="http://www.w3.org/2000/svg">
<path d="M16.0433 12.7099C17.0237 11.9385 17.7393 10.8808 18.0905 9.68382C18.4418 8.48684 18.4112 7.21015 18.0031 6.03135C17.595 4.85255 16.8296 3.83027 15.8134 3.10674C14.7972 2.3832 13.5808 1.99438 12.3333 1.99438C11.0859 1.99438 9.86942 2.3832 8.85324 3.10674C7.83706 3.83027 7.07165 4.85255 6.66352 6.03135C6.25539 7.21015 6.22482 8.48684 6.57607 9.68382C6.92732 10.8808 7.64292 11.9385 8.62331 12.7099C6.94339 13.3829 5.4776 14.4992 4.3822 15.9398C3.28681 17.3804 2.60287 19.0912 2.40331 20.8899C2.38886 21.0212 2.40043 21.1541 2.43734 21.2809C2.47424 21.4078 2.53578 21.5261 2.61842 21.6292C2.78533 21.8374 3.02809 21.9707 3.29331 21.9999C3.55853 22.0291 3.82447 21.9517 4.03263 21.7848C4.2408 21.6179 4.37414 21.3751 4.40331 21.1099C4.62289 19.1551 5.555 17.3497 7.02153 16.0387C8.48806 14.7277 10.3862 14.0029 12.3533 14.0029C14.3204 14.0029 16.2186 14.7277 17.6851 16.0387C19.1516 17.3497 20.0837 19.1551 20.3033 21.1099C20.3305 21.3556 20.4477 21.5825 20.6324 21.7469C20.8171 21.9113 21.0561 22.0014 21.3033 21.9999H21.4133C21.6754 21.9697 21.915 21.8372 22.0799 21.6311C22.2447 21.4251 22.3214 21.1622 22.2933 20.8999C22.0928 19.0961 21.4052 17.3809 20.3042 15.9381C19.2031 14.4953 17.7302 13.3794 16.0433 12.7099ZM12.3333 11.9999C11.5422 11.9999 10.7688 11.7653 10.111 11.3258C9.45323 10.8862 8.94054 10.2615 8.63779 9.53061C8.33504 8.79971 8.25583 7.99544 8.41017 7.21952C8.56451 6.4436 8.94547 5.73086 9.50488 5.17145C10.0643 4.61204 10.777 4.23108 11.5529 4.07674C12.3289 3.9224 13.1331 4.00161 13.864 4.30436C14.5949 4.60711 15.2197 5.1198 15.6592 5.7776C16.0987 6.4354 16.3333 7.20876 16.3333 7.99988C16.3333 9.06075 15.9119 10.0782 15.1617 10.8283C14.4116 11.5785 13.3942 11.9999 12.3333 11.9999Z" fill="#666666"/>
</svg>
